<?xml version="1.0" encoding="utf-8"?>
<!-- Generator: Adobe Illustrator 16.0.0, SVG Export Plug-In . SVG Version: 6.00 Build 0)  -->
<!DOCTYPE svg PUBLIC "-//W3C//DTD SVG 1.1//EN" "http://www.w3.org/Graphics/SVG/1.1/DTD/svg11.dtd">
<svg version="1.1" id="Layer_1" xmlns="http://www.w3.org/2000/svg" xmlns:xlink="http://www.w3.org/1999/xlink" x="0px" y="0px"
	 width="1920px" height="336px" viewBox="-275.948 27.73 1920 336" enable-background="new -275.948 27.73 1920 336"
	 xml:space="preserve">
<path fill="#26471C" d="M491.256,348.833c4.694,0.159,9.443,0.183,14.04,0.076c16.901-0.393,31.564-2.505,33.389-6.113
	c0.822-1.628-1.822-3.775-9.53-6.478c-0.91-0.322-1.822-0.647-2.739-0.979c-25.04-9.081-50.026-22.207-67.622-35.296
	c-17.844-13.27-28.169-26.56-23.533-35.734c0.063-0.124,0.129-0.249,0.2-0.375c0.473-0.851,1.002-1.651,1.58-2.4
	c4.814-6.238,13.266-9.353,23.404-9.865h0.006c6.587-0.333,13.876,0.433,21.334,2.158l0.275-1.514
	c0.318-1.74,3.345-2.414,6.727-1.501l9.482,2.568l1.656,0.448l2.171,0.587l14.63,3.962c2.361,0.64,4.111,2.157,3.89,3.372l0,0
	c-0.223,1.216-2.337,1.687-4.698,1.047l-14.631-3.96l-0.621,3.395l14.629,3.957c2.362,0.642,4.112,2.16,3.89,3.375l0,0
	c-0.223,1.215-2.337,1.686-4.698,1.048l-14.631-3.962l0,0l-13.309-3.602c-3.381-0.917-5.886-3.089-5.568-4.83l0.431-2.354
	c-6.711-1.523-13.257-2.2-19.173-1.902v0.001c-9.271,0.47-17.019,3.341-21.464,9.101c-0.55,0.714-1.048,1.467-1.49,2.257
	c-0.061,0.11-0.121,0.224-0.179,0.338c-4.265,8.438,5.569,20.912,22.465,33.479c17.145,12.751,41.478,25.539,65.854,34.379
	c0.884,0.319,1.773,0.637,2.665,0.95c10.432,3.657,13.832,6.922,12.439,9.678c-2.129,4.214-17.729,6.644-35.599,7.06
	c-5.114,0.118-10.428,0.075-15.676-0.134v-2.236H491.256z M772.355,291.968l-12.054-7.78c-3.552-2.291-4.148-5.215-1.327-6.495
	l3.996-1.812l0,0l2.457-1.115c5.944-2.697,13.867-1.325,19.923,1.633c6.909-3.713,17.076-5.499,28.816-4.823
	c11.585,0.665,24.688,3.723,37.696,9.68c2.318,1.061,4.427,2.2,6.328,3.4c9.359,5.911,13.629,13.282,13.769,20.895
	c0.137,7.444-3.69,15.146-10.559,21.918c-4.566,4.495-10.479,8.587-17.47,11.916c-3.884,1.851-4.506,3.256-2.891,4.278
	c5.05,3.19,23.979,5.024,42.839,5.28c1.154,0.018,2.31,0.026,3.459,0.03v2.286c-0.677-0.007-1.349-0.014-2.022-0.021
	c-19.979-0.271-40.473-2.494-46.692-6.422c-3.559-2.249-3.424-4.754,2.161-7.418c6.799-3.239,12.553-7.218,16.994-11.594
	c6.644-6.547,10.346-13.968,10.217-21.106c-0.128-6.97-3.919-13.646-12.222-18.889c-1.657-1.047-3.499-2.041-5.529-2.972
	c-12.066-5.526-24.205-8.36-34.922-8.978c-10.849-0.623-20.253,1.021-26.663,4.438c5.919,3.986,8.412,9.412,1.731,12.585
	l-5.551,2.519l-0.902,0.41C781.117,295.088,775.904,294.259,772.355,291.968z"/>
<path fill="#225622" d="M551.448,269.351c-2.342-0.888-4.642-1.772-6.897-2.656c-0.474,0.073-0.253,0.602,0.91,1.749
	c4.966,4.898-17.256-5.633-27.288-12c-2.154-1.367-4.261-2.654-6.224-3.787c-2.562-1.241-5.011-2.474-7.345-3.698
	c-2.968-1.133-4.563-0.958-3.751,1.363c1.714,4.897-15.111-10.041-21.049-16.164c-2.511-2.591-4.001-5.532-5.21-7.729
	c-0.565-0.806-1.067-1.601-1.505-2.388c-1.019-1.218-2.077-1.396-3.757,0.321c-4.312,4.409-5.419-10.531-1.575-12.244
	c1.529-0.684,3.33-2.257,4.466-3.764c0.311-0.653,0.664-1.298,1.055-1.933c0.357-1.325-0.504-2.089-3.692-1.161
	c-7.576,2.203,7.312-6.368,6.517-8.327c-0.06-0.147-0.172-0.274-0.33-0.382c-0.642-0.217-1.4-0.375-2.277-0.47
	c-3.633-0.048-10.272,1.601-15.317,4.771c-7.021,4.408-8.408,4.163-9.265,1.713c-0.856-2.449-3.857-0.489-4.777,7.103
	c-0.92,7.592-10.577,4.162-10.475,0.734c0.101-3.428-3.076-0.734-3.216,6.611c-0.139,7.347-4.727,5.39-7.335,1.959
	c-2.61-3.428-2.396,2.45,4.385,8.817c6.781,6.366,10.828,8.326,2.685,6.121c-8.144-2.202,5.986,4.408,21.73,8.817
	c5.34,1.496,6.633,2.341,5.571,2.809c7.05,2.469,12.827,5.338,14.682,6.581c5.097,3.417-0.988,3.826-5.942,0.86
	c-9.392-5.617-15.115-1.605-6.116,0.581c10.26,2.495,12.67,7.027,0.994,4.29c-4.881-1.554-9.142-0.138-3.763,1.043
	c5.757,1.265,3.349,4.991-5.815,2.075c-7.917-2.521-4.476-0.385-2.441,0.42c6.411,2.53,1.124,3.907-8.872-0.695
	c-5.095-2.346-9.901-4.823-14.442-7.368c0.003,0.864,0.09,1.751,0.203,2.629c0.63,4.896-15.34-7.592-19.159-12.001
	c-3.817-4.407-10.246-12.243-14.621-8.325c-4.374,3.918-9.893-13.715-7.384-17.39c0.539-0.788,1.347-1.725,2.18-2.699
	c0.456-2.135,1.512-4.18,3.125-6.128c-0.504-0.771-1.96-1.176-4.938-0.966c-10.476,0.734,9.291-7.838,20.119-10.041
	c1.393-0.284,2.862-0.601,4.325-0.933c3.611-1.36,7.591-2.631,11.92-3.804c0.404-0.676-1.886-1.011-8.808-0.65
	c-18.844,0.98,13.702-5.143,25.627-5.143c11.924,0,36.604-1.959,21.176-3.918c-10.01-1.271,12.313-1.306,35.249-0.972
	c1.49-0.97,10.511-2.056,21.381-1.213c5.829,0.453,9.915,1.188,11.971,1.93c5.174-0.09,10.27-0.035,15.244,0.106
	c7.646-0.649,17.442,0.169,22.088,1.03c9.888,0.559,18.814,1.06,26.27,0.833c16.197-0.488,32.898,2.939,16.223,3.92
	c-0.676,0.038-1.249,0.078-1.744,0.119c3.454,0.416,6.907,0.853,10.356,1.31c9.654,0.371,22.454,0.659,29.34,0.775
	c14.396,0.246,16.64,2.939,11.647,4.164c-4.991,1.224,17.837,1.714,31.878,3.428c14.043,1.715,8.57,3.43,1.223,3.184
	c-7.35-0.246,17.192,5.143,34.788,7.103c17.596,1.958,11.886,3.917,7.551,3.917c-4.336,0,7.728,3.184,23.823,6.122
	c16.097,2.938,12.856,5.144,6.769,4.163c-6.088-0.979,6.883,2.939,24.554,7.594c17.672,4.651,12.566,7.101,5.811,5.141
	c-6.757-1.958,2.658,1.715,18.592,7.595c15.934,5.877,12.39,7.836,3.58,4.651c-8.812-3.184,3.933,3.185,15.526,9.062
	c9.387,4.756,8.573,6.145,0.661,3.646c3.778,3.165,6.519,5.971,8.62,8.414c3.749,4.362-1.32,5.518-4.558,2.177
	c-1.277-1.319-3.645-2.016-1.613,0.131c2.104,2.226,0.882,2.468-1.197,2.594c-2.987,0.183-6.308-0.741-10.222-2.775
	c-7.363-3.823,1.561,4.186-9.979,1.05c-5.236-1.423-5.557-3.871-6.612-5.485c-1.226-1.868-7.67-5.821-10.699-2.278
	c-1.16,1.358,6.734,4.527,1.7,4.877c-8.969,0.62-12.09-5.901-10.646-9.446c0.639-1.56,1.212-2.647,1.546-3.586
	c-4.243,0.47-6.957-1.547-5.266-3.724c2.094-2.693-1.499-9.552-4.978-7.103c-3.481,2.449-6.215-1.959-10.337-6.612
	c-4.12-4.652-24.099-12.49-19.928-9.551c4.172,2.938-5.117,0.245-13.272-4.163c-8.154-4.408-22.397-9.796-18.402-6.123
	c3.994,3.674-14.244-5.388-24.504-9.306c-10.262-3.919-22.26-6.611-15.858-3.183c6.404,3.427-16.221-3.92-25.271-6.859
	c-9.049-2.938-20.142-4.898-25.197-4.163c-5.054,0.735,7.324,6.369,25.902,11.756c18.58,5.388,19.79,6.367,10.386,4.898
	c-9.403-1.47,2.546,2.938,15.881,7.591c13.336,4.654,34.879,12.001,20.52,7.838c-14.356-4.164-6.074,1.224,10.94,7.103
	c17.018,5.876,7.689,7.102,1.715,4.897c-0.794-0.294-1.302-0.434-1.563-0.442c1.767,1.313,3.419,2.626,4.93,3.938
	c3.238,2.076,7.69,4.759,12.414,7.525c11.723,6.856,5.659,10.284,0.213,5.876c-5.443-4.409-0.592,1.715,6.074,9.306
	c6.669,7.592,0.832,8.571-2.862,5.143c-1.929-1.793-3.491-2.445-4.053-1.577c-0.066,0.224-0.135,0.443-0.211,0.666
	c-0.114,1.054,0.354,2.944,1.643,5.81c3.415,7.594-2.976,6.368-4.677,3.673c-1.701-2.693-2.104,0.49-3.051,3.674
	c-0.946,3.183-3.038,5.878-6.302,3.674c-3.267-2.204,0.918,2.938,10.99,5.388c4.603,1.119,4.961,1.829,3.146,2.083
	c7.4,1.36,15.304,2.766,20.251,4.947c8.47-2.34,9.507-2.726,9.788,1.286c6.212,1.556,11.542,6.515,4.529,6.291
	c1.535,3.871-0.387,6.36-8.389,5.224c-13.875-1.974-24.656-3.657-35.351-3.35c-8.457,0.242-23.341-8.785-24.493-13.66
	c-0.108-0.451-0.13-0.993-0.092-1.597c-0.561,0.082-1.135,0.163-1.723,0.244c-8.785,1.225-9.176-3.918-2.799-4.896
	c3.359-0.518,5.625-2.526,6.022-4.03c0-0.031,0-0.066-0.002-0.098c-0.061-0.37-0.123-0.734-0.191-1.096
	c-0.492-0.581-1.709-0.771-3.811-0.163c-6.795,1.956,1.942-8.083-1.122-6.614c-3.063,1.469-30.946,1.714-44.496,1.714
	c-13.55,0-45.366-2.938-34.751-0.489c10.613,2.449,4.411,2.693-4.513,0.735c-8.924-1.96,0.731,1.468,14.483,5.143
	c13.751,3.673,10.02,4.164,0.554,2.202c-0.838-0.174-1.494-0.299-1.99-0.388c2.333,0.837,4.729,1.677,7.096,2.507
	c4.344,1.271,10.072,2.912,16.371,4.74c8.017,2.323,7.423,3.147,3.367,3.351c7.028,4.476,5.973,9.037-5.508,8.911
	c-7.263-0.079-13.852,2.385-13.063,4.832c2.115,6.553-18.514,4.26-21.406,0.29c-7.26,1.288-11.705,0.042-13.202-3.044
	c-12.539,0.991-20.906-9.974,1.302-8.099c0.803-1.489,5.504-4.412-1.041-3.794c-6.545,0.62,1.664-3.917,12.504-3.917
	s-1.033-1.715-4.059-4.164c-3.025-2.448-20.406-9.062-15.743-4.407c4.663,4.652-13.21-3.674-23.357-8.816
	C558.99,273.102,554.841,270.976,551.448,269.351z"/>
<path fill="#FFFFFF" d="M331.877,345.071c10.481,0.594,21.541-0.015,30.755-1.649c8.953-1.584,16.033-4.08,18.871-7.29
	c1.77-2.003,1.43-4.519-1.971-7.524c-5.368-4.747-5.571-9.024-2.365-12.649c4.727-5.347,18.311-8.61,32.568-9.219
	c14.148-0.604,29.146,1.363,36.892,6.465c5.983,3.94,8.021,9.521,3.136,16.938c-2.877,4.366-1.507,7.837,2.472,10.46
	c8.317,5.478,26.566,7.738,43.897,7.125c17.161-0.607,33.218-3.965,37.421-9.723c1.893-2.597,0.666-6.028-5.261-10.354
	c-0.699-0.508-1.398-1.032-2.096-1.563c-19.053-14.524-35.384-35.514-44.352-56.429c-9.094-21.21-10.66-42.439,0.025-57.078
	c0.144-0.197,0.292-0.396,0.444-0.599c1.037-1.356,2.092-2.634,3.165-3.83c8.927-9.953,19.432-14.914,29.909-15.723h0.006
	c10.476-0.809,20.895,2.548,29.655,9.228c1.071,0.816,2.111,1.675,3.113,2.576l-2.444,2.726c-0.944-0.847-1.908-1.645-2.886-2.39
	c-8.042-6.132-17.586-9.216-27.163-8.48v0.002c-9.58,0.738-19.221,5.314-27.465,14.506c-1.02,1.136-2.013,2.338-2.977,3.602
	c-0.134,0.174-0.268,0.354-0.403,0.538c-9.825,13.466-8.215,33.392,0.396,53.473c8.737,20.38,24.641,40.822,43.191,54.965
	c0.673,0.513,1.353,1.021,2.038,1.521c8.021,5.854,9.27,11.067,6.058,15.468c-4.907,6.724-22.11,10.585-40.252,11.229
	c-17.971,0.636-37.068-1.823-46.038-7.732c-5.842-3.845-7.819-8.995-3.515-15.529c3.444-5.229,2.053-9.135-2.095-11.867
	c-7.072-4.66-21.229-6.437-34.724-5.862c-13.383,0.572-25.933,3.409-29.982,7.989c-1.718,1.941-1.379,4.44,2.056,7.477
	c5.326,4.712,5.55,8.998,2.28,12.695c-3.425,3.873-11.267,6.762-20.984,8.482c-9.457,1.675-20.815,2.302-31.589,1.688
	c-15.41-0.874-28.514-2.123-44.167-2.396c-9.594-0.012-695.493-5.091-704.946-5.605l1-3c8.948,0.289,691.028,4.776,705.925,4.794
	C305.137,342.795,316.505,344.198,331.877,345.071L331.877,345.071z M1042.483,352.144c-11.722,0.079-25.364-1.922-36.002-3.425
	c-10.989-1.555-19.623-4.33-22.284-8.127c-2.095-2.992-1.286-6.235,3.506-9.591c2.728-1.912,3.423-3.39,2.66-4.477
	c-2.903-4.144-16.894-6.717-31.681-7.148c-14.922-0.437-30.421,1.386-36.088,6.051c-2.163,1.78-2.466,4.18,0.085,7.281
	c3.678,4.468,2.986,8.218-0.725,11.272c-7.127,5.865-27.73,8.369-47.338,7.917c-19.798-0.458-38.824-4.033-42.455-10.312
	c-2.076-3.592-0.289-7.593,7.053-11.837c8.935-5.165,17.311-11.51,24.637-18.493c10.96-10.442,19.555-22.285,24.132-33.684
	c4.467-11.128,5.076-21.789,0.229-30.17c-0.965-1.674-2.149-3.261-3.57-4.748c-8.422-8.84-18.691-13.38-29.003-14.376
	c-11.324-1.094-22.707,2.075-31.758,8.506l-2.123-2.989c9.752-6.932,22.021-10.345,34.231-9.165
	c11.146,1.078,22.236,5.973,31.313,15.499c1.617,1.699,2.978,3.519,4.088,5.438c5.462,9.449,4.872,21.219-0.008,33.373
	c-4.771,11.884-13.676,24.179-25.009,34.975c-7.527,7.174-16.138,13.698-25.327,19.009c-5.101,2.949-6.651,5.194-5.709,6.825
	c2.947,5.099,20.665,8.052,39.355,8.484c18.884,0.438,38.513-1.799,44.937-7.086c1.946-1.605,2.261-3.632,0.215-6.115
	c-4.196-5.103-3.482-9.226,0.425-12.441c6.386-5.254,22.858-7.336,38.515-6.88c15.795,0.462,30.992,3.581,34.584,8.705
	c2.067,2.954,1.275,6.198-3.561,9.587c-2.692,1.886-3.387,3.368-2.607,4.479c2.033,2.903,9.742,5.181,19.787,6.6
	c10.396,1.473,23.675,3.199,35.289,3.646c12.751-0.002,31.711-0.259,42.84-0.259c8.164-0.17,697.139-1.438,701.064-1.977
	l1.371,3.237c-5.083,0.38-696.25,2.168-702.231,2.162C1072.974,352.072,1056.591,352.354,1042.483,352.144z"/>
<path fill="#3FAF4C" d="M615.8,253.421c-24.776-32.327-41-63.025-43.752-91.143c-3.22-32.891,11.897-60.02,32.465-81.518
	c40.452-42.278-82.89,11.565-87.28,61.973c-0.863,9.917,5.547,21.104,13.375,29.216c5.718,5.925,8.901,14.505,9.287,17.832
	c0.875,7.563-5.712,8.466-7.005,1.905c-2.453-12.435-13.132-3.553-6.834,1.287c7.18,5.519,3.992,15.548-4.304,9.492
	c-2.962-3.439-8.972-0.302-5.052,2.309c4.196,2.797-2.815,11.045-8.377,4.589c-4.804-5.575-4.004-0.846-2.961,0.932
	c3.284,5.603-3.703,8.647-8.013-1.539c-6.717-15.872-9.221-34.448-10.458-51.688C481.371,80.229,591.66,30.666,691.136,39.707
	c80.783,7.341,155.015,48.438,182.079,106.087c17.423,37.114,16.529,64.995,13.391,83.502c-1.635,9.648-8.135,12.212-7.245,4.815
	c0.354-2.921-1.154-4.461-1.775,0.293c-0.646,4.928-2.165,5.46-4.401,5.74c-3.212,0.402-5.391-1.643-6.793-6.144
	c-2.638-8.463-3.611,9.268-11.277,2.324c-3.479-3.149-0.771-8.568,0.162-12.143c1.085-4.135-0.478-12.883-7.881-5.044
	c-2.841,3.008,1.14,10.024-4.325,10.795c-9.736,1.375-4.798-13.063,1.02-20.903c8.434-11.355,9.862-11.398,12.214-25.479
	c11.355-68.065-142.968-174.064-85.044-83.776c13.805,21.521,27.471,59.917,17.435,92.931
	c-11.014,36.235-26.372,50.429-52.447,74.762l0.009-0.001c-4.068,3.864-2.494,13.108,2.134,15.771
	c6.486,3.731,15.109,7.07,17.865,12.975c11.359-5.177,19.217,1.025,14.543,9.905c4.29,3.443,3.497,14.416-3.241,13.924
	c-3.248,8.57-14.584,7.018-21.182,4.501c-11.438-4.365-15.082-16.216-26.152-15.536c-8.758,0.534-17.552-11.316-12.686-22.105
	c2.541-5.633,11.438-17.801,14.226-22.968c17.656-36.466,17.766-50.924-37.151-51.755c-54.919-0.831-58.731,18.201-44.977,46.163
	c4.707,8.769,13.706,18.52,17.314,26.514c5.019,11.125-1.884,24.888-15.082,24.564c-7.167-0.176-16.798,5.278-19.032,10.695
	c-5.98,14.504-23.774,9.425-21.763,0.64c-8.852,2.848-13.646-1.883-11.333-8.712c-14.491,2.308-7.984-24.729,14.595-17.015
	c-0.519-4.967,15.06-16.493,23.818-16.085C638.146,279.412,619.195,257.851,615.8,253.421z"/>
<path fill="#FAE2B9" d="M843.019,229.94c-3.732,0.509-5.288-1.326-5.458-4.224c0.175-0.02,0.351-0.029,0.527-0.029
	C840.517,225.687,842.546,227.513,843.019,229.94z"/>
<path fill="#FAE2B9" d="M539.969,190.868c0.073,3.167-1.294,4.92-2.865,5.18c-0.163-0.436-0.251-0.909-0.251-1.406
	C536.853,192.706,538.212,191.106,539.969,190.868z"/>
<path fill="#3FAF4C" d="M679.751,38.374c-21.14-1.627-81.303-3.795-68.294,0.542c13.009,4.336-14.092,8.672-26.017,8.672
	c-11.925,0-52.035,13.551-31.98,11.382c20.055-2.168-0.543,7.048-14.093,11.925c-13.55,4.879-43.903,23.848-32.521,22.222
	c11.381-1.626-5.42,13.55-12.468,21.68c-7.045,8.131-23.307,47.156-14.091,38.483c9.214-8.671,5.961,8.672,4.336,18.428
	c-1.626,9.756-1.084,37.399,4.335,26.56c5.421-10.84,11.924-22.222,23.308-22.222c11.382,0,29.269,2.71,18.971-7.048
	c-10.299-9.755-16.26-24.39-10.84-19.513c5.419,4.878,3.793,0.542,4.877-13.55c1.084-14.093,8.131-27.101,6.504-19.512
	c-1.626,7.588,0.543,11.924,9.757-4.337c9.214-16.26,15.718-22.221,11.382-14.633c-4.337,7.588,1.084,15.177,11.382-1.627
	c10.298-16.803,15.719-21.139,13.551-15.718c-2.168,5.42-1.084,5.963,11.382-3.794c12.466-9.756,24.391-13.008,22.765-8.672
	c-1.626,4.335-27.102,23.307-16.803,18.428c10.299-4.879-4.336,11.383-10.298,15.176c-5.962,3.795-23.306,36.857-13.55,27.102
	c9.756-9.756,0,8.13-1.627,21.68c-1.625,13.551-3.251,46.614,1.084,35.774c4.336-10.841,7.588-0.542,9.757,13.55
	c2.167,14.092,11.381,37.398,12.466,26.559c1.084-10.84,5.42,3.252,9.216,14.635c3.794,11.383,11.381,29.812,12.466,19.514
	c1.084-10.301,10.298,4.335,10.298,9.755c0,5.421,9.757,9.216-1.084,9.216s-26.017,10.299-17.344,8.671
	c8.673-1.627-14.092,8.132-3.252,9.757c10.839,1.628,23.849-8.674,34.688-8.674c10.84,0,32.521,4.88,21.139-6.504
	c-11.381-11.382-20.055-19.511-13.009-15.176c7.047,4.338,11.382,3.253,2.168-4.879c-9.214-8.13-14.635-15.718-8.13-11.383
	c6.505,4.338,13.009,3.795,5.42-1.626c-7.588-5.419,20.597,1.085,34.148,1.085c13.549,0,41.735-0.543,46.614-3.796
	c4.876-3.251-16.262,18.973-7.049,14.637c9.215-4.337-1.085,9.756-8.671,11.924c-7.589,2.169-13.552,13.55-3.254,10.839
	c10.301-2.709,17.347-5.419,23.85-1.082c6.504,4.335,17.346,3.251,10.3-2.168c-7.046-5.42-4.88-16.803-4.337-11.926
	c0.543,4.878,5.963-1.083,10.84-8.13c4.88-7.046,9.217-14.094,7.588-8.131c-1.626,5.962,3.253,8.673,9.216-8.132
	c5.962-16.8,9.216-18.428,8.673-10.839c-0.544,7.588,6.504,5.42,9.214-11.383c2.709-16.803,5.419-30.354,5.419-20.597
	c0,9.757,10.3,2.167,7.047-13.008c-3.251-15.176-5.42-29.269-2.166-24.391c3.25,4.878,14.09,2.169,4.335-10.84
	c-9.757-13.008-11.384-24.934-2.169-15.718c9.216,9.215-3.251-7.048-10.839-17.345c-7.588-10.298-14.093-20.055-6.505-16.803
	c7.587,3.252,7.587,1.084-4.336-10.84c-11.926-11.924-17.344-24.391-11.383-26.017c5.963-1.626,14.636,2.71,20.055,9.215
	c5.42,6.503,18.971,22.764,16.804,15.176c-2.17-7.588,6.503-1.626,11.924,7.046c5.42,8.672,12.465,28.727,13.008,20.596
	c0.542-8.131,8.13,3.794,10.84,13.551c2.711,9.756,8.671,15.718,8.131,9.215c-0.543-6.505,9.756,10.84,8.13,21.138
	c-1.624,10.298-4.336,20.055,2.168,14.634c6.505-5.42,1.626,9.757-3.793,15.718c-5.422,5.963-3.796,11.383,4.878,6.504
	c8.673-4.879,23.307-5.962,30.353,5.963c7.047,11.924,11.925,10.299,7.588-2.71c-4.334-13.009-9.213-27.101-4.334-20.055
	c4.879,7.046,10.84,2.71,2.167-10.298c-8.671-13.008-13.551-21.139-9.215-16.803c4.336,4.335,12.467-1.085,0.542-11.383
	c-11.924-10.298-20.057-18.971-15.177-16.803c4.879,2.167,10.841-2.71-1.626-9.215c-12.466-6.503-20.596-13.55-16.26-13.55
	c4.335,0,12.467-4.336-2.711-8.672c-15.176-4.336-33.064-16.261-26.017-15.718c7.046,0.542,14.637-3.252,2.711-7.045
	c-11.924-3.795-34.147-4.879-27.644-7.589c6.504-2.71,7.589-8.672-6.504-9.214c-14.092-0.543-53.118-2.71-35.231-4.879
	c17.886-2.169,5.419-9.756-11.383-8.672C724.74,43.793,705.227,37.289,679.751,38.374z"/>
<circle fill="#318437" cx="707.956" cy="90.753" r="38.802"/>
<circle fill="#318437" cx="644.665" cy="91.064" r="32.571"/>
<path fill="#FFFFFF" d="M648.235,61.347c14.154,1.971,24.032,15.045,22.06,29.199c-1.974,14.155-15.047,24.03-29.201,22.057
	c-14.156-1.971-24.031-15.044-22.058-29.198C621.008,69.249,634.081,59.374,648.235,61.347z"/>
<g>
	<path d="M660.041,69.491c5.179,0.723,8.793,5.505,8.07,10.684c-0.721,5.178-5.504,8.792-10.684,8.069
		c-5.178-0.722-8.791-5.504-8.069-10.682C650.08,72.384,654.862,68.77,660.041,69.491z"/>
	<circle fill="#FFFFFF" cx="664.275" cy="83.979" r="3.066"/>
</g>
<path fill="#FFFFFF" d="M712.374,54.963c17.507,2.438,29.724,18.61,27.284,36.119c-2.441,17.509-18.61,29.724-36.119,27.283
	c-17.51-2.438-29.727-18.609-27.284-36.118C678.695,64.738,694.864,52.523,712.374,54.963z"/>
<g>
	<path d="M725.053,66.96c6.405,0.893,10.875,6.809,9.984,13.214c-0.894,6.405-6.811,10.875-13.215,9.981
		c-6.405-0.894-10.873-6.807-9.983-13.214C712.732,70.536,718.65,66.067,725.053,66.96z"/>
	<circle fill="#FFFFFF" cx="730.292" cy="84.88" r="3.794"/>
</g>
<path fill="#3FAF4C" d="M685.312,250.59c55.996,0,101.668-26.957,101.668-60.008s-45.672-60.007-101.668-60.007
	c-55.999,0-101.67,26.957-101.67,60.007C583.642,223.632,629.314,250.59,685.312,250.59z"/>
<path fill="#FFFFFF" d="M695.395,38.597c13.445-2.328,27.795,3.624,20.704,5.069c-7.088,1.446,4.276,2.429,14.075,2.992
	c9.8,0.563,13.234,6.117,5.78,5.987c-7.452-0.13,5.072,1.658,9.689,6.839c4.618,5.182,6.525,8.354-1.637,3.896
	c-8.161-4.459-34.635-16.299-48.757-16.546C681.128,46.586,681.844,40.943,695.395,38.597z"/>
<path fill="#FFFFFF" d="M670.787,34.078c-13.946-2.649-28.969,3.299-21.622,4.923c7.347,1.624-4.486,2.453-14.687,2.873
	c-10.202,0.421-13.867,6.139-6.114,6.129c7.754-0.01-5.303,1.639-10.193,6.949c-4.891,5.311-6.928,8.578,1.638,4.079
	c8.564-4.499,34.827-15.133,49.518-15.15C684.018,43.864,684.84,36.746,670.787,34.078z"/>
<path fill="#318437" d="M680.482,179.628c5.408,0,9.816-7.004,9.816-15.591c0-8.59-4.408-15.594-9.816-15.594
	c-5.407,0-9.818,7.004-9.818,15.594C670.664,172.624,675.075,179.628,680.482,179.628z"/>
<path fill="none" stroke="#FFFFFF" stroke-width="6.2399" stroke-miterlimit="22.9256" d="M851.083,226.789
	c-6.37,1.437-12.411,4.127-17.688,7.886"/>
<path fill="none" stroke="#FFFFFF" stroke-width="7.2" stroke-miterlimit="22.9256" d="M530.436,193.917
	c9.745,0.353,19.236,4.4,27.05,11.391"/>
<path fill="#388E3C" d="M672.536,74.773c-41.701-1.855-63.941,15.289-69.037,22.703C606.088,63.263,652.647,26.873,672.536,74.773z"
	/>
<path fill="#388E3C" d="M670.97,68.965c41.698-1.854,78.938,15.529,84.036,22.944C749.411,56.056,705.454,26.146,670.97,68.965z"/>
<path fill="#FAE2B9" d="M587.436,298.759c2.241,0,3.743,2.254,3.356,5.031c-0.389,2.776-2.52,5.029-4.761,5.029
	c-2.242,0-3.743-2.253-3.356-5.029C583.063,301.012,585.194,298.759,587.436,298.759z"/>
<path fill="#FAE2B9" d="M597.687,307.399c2.466,0.668,3.447,3.597,2.191,6.539c-1.256,2.942-4.274,4.784-6.742,4.117
	c-2.466-0.669-3.447-3.597-2.191-6.538C592.202,308.573,595.22,306.73,597.687,307.399z"/>
<path fill="#FAE2B9" d="M612.737,314.342c3.687,0.669,5.658,3.597,4.401,6.539c-1.256,2.943-5.264,4.784-8.951,4.117
	c-3.688-0.669-5.659-3.597-4.402-6.538C605.042,315.515,609.049,313.673,612.737,314.342z"/>
<path fill="#FAE2B9" d="M765.995,295.336c-2.24,0-3.743,2.254-3.356,5.029c0.389,2.778,2.521,5.031,4.763,5.031
	c2.24,0,3.741-2.254,3.354-5.031C770.368,297.588,768.236,295.336,765.995,295.336z"/>
<path fill="#FAE2B9" d="M764.549,306.91c-2.469,0.67-3.447,3.597-2.191,6.539c1.255,2.942,4.273,4.787,6.741,4.118
	c2.466-0.67,3.447-3.598,2.192-6.541C770.035,308.083,767.015,306.241,764.549,306.91z"/>
<path fill="#FAE2B9" d="M754.53,313.721c-3.687,0.67-5.657,3.598-4.401,6.54c1.258,2.943,5.265,4.787,8.952,4.117
	c3.686-0.669,5.655-3.596,4.398-6.539C762.227,314.898,758.218,313.053,754.53,313.721z"/>
<g>
	<path fill="#318437" d="M855.99,151.654v-1.736c0.013,0.004,0.027,0.005,0.041,0.007c-0.015-0.003-0.028-0.008-0.041-0.01v-0.771
		c1.102-4.857-2.475-18.033,8.915-10.843c6.353,4.011-1.661-6.819-2.403-7.686c2.584,1.887,4.113,3.59,5.339,6.637
		c2.463,6.121-5.036,1.23-5.702,0.916C854.292,134.444,860.023,152.256,855.99,151.654L855.99,151.654z M879.954,183.999
		c1.452,2.594,9.767,19.954,5.985,22.77c-3.41,2.541-5.751-13.104-12.221-5.336c-2.931,3.518-10.822,9.464-15.844,7.538
		c-6.001-2.302,13.879-17.81,7.315-20.287c-0.907-0.343-2.275-0.141-3.204-0.065c1.102-0.368,1.739-0.678,2.92-0.517
		c8.361,1.133-8.486,18.826-6.492,19.509c4.174,1.43,11.406-4.428,13.92-7.325c7.039-8.105,9.814,3.269,12.893,5.269
		C886.931,202.914,880.932,186.457,879.954,183.999z M855.99,149.145v0.771c-0.017-0.004-0.028-0.004-0.041-0.004l0.041,0.007v1.736
		c-0.216-0.032-0.456-0.114-0.73-0.256c-4.502-2.344-7.079-18.687-7.131-23.351c0.525,2.887,4.869,20.522,7.641,21.804
		C855.857,149.644,855.929,149.405,855.99,149.145L855.99,149.145z M832.899,114.116v-1.822l0.001,0.001l0.001-0.001l-0.002-0.002
		v-1.285c0.65-3.801-0.047-4.931,7.044-7.277c1.643-0.543,6.442-1.428,7.686-2.237c0.004,0.006,0.002,0.006,0.008,0.008
		c0.014-0.335-2.576-1.679-2.587-1.684c6.399,1.367,2.495,2.856-1.444,4.169c-12.862,4.286-7.192,5.743-9.607,9.308
		C833.64,113.821,833.272,114.077,832.899,114.116z M746.498,239.433c-0.354,4.192-1.104,14.979-5.869,17.684
		c-1.604,0.911-2.029-0.579-2.129-1.997v-3.364c1.772-0.649,1.415,2.076,1.63,3.494
		C743.636,252.012,745.528,243.308,746.498,239.433L746.498,239.433z M832.899,111.006v1.286l-0.006-0.001l0.006,0.002v1.823
		c-3.213,0.347-6.842-15.326-6.842-15.326c0.454,1.079,4.574,11.725,6.615,13.354C832.764,111.74,832.835,111.362,832.899,111.006
		L832.899,111.006z M738.5,302.009v-1.569l0.01-0.005l-0.01,0.005v-0.026l0.021,0.011c0.684-0.518,0.535-2.293-0.021-4.563v-4.342
		c1.795,4.235,2.875,8.514,0.954,10.104C739.146,301.875,738.827,301.998,738.5,302.009L738.5,302.009z M738.5,195.94v-0.908
		c0.44-0.421,0.938-0.906,1.499-1.449c10.862-10.456,5.217,8.29,11.189,10.081c5.286,1.586,4.026-13.036,6.173-15.735
		c5.237-6.584,14.139,15.772,14.898,16.05l-0.002,0.001c0.009-0.001,0.014,0,0.038-0.019c3.654-2.843-0.749-24.463-1.673-28.179
		c2.293,6.358,6.403,21.649,3.238,28.295c-2.145,4.502-4.416-2.365-7.005-7.23c-3.479-6.545-8.409-13.221-9.243-2.586
		c-0.21,2.652-1.824,13.446-7.389,10.533c-7.059-3.695,0.229-19.414-9.676-10.625C739.83,194.809,739.137,195.424,738.5,195.94
		L738.5,195.94z M766.516,111.109c0.57,1.528,7.925,25.69,0.801,22.631c-5.359-2.302-10.579-16.216-11.639-7.377
		c-0.893,7.446-1.622,17.007-8.328,21.946c-3.835,2.825-4.373-2.957-4.447-5.374c0.374,1.671,1.026,7.056,3.929,4.676
		c6.175-5.062,6.479-14.23,7.16-21.403c1.145-12.032,10.641,3.218,12.828,5.356C772.549,137.166,766.588,111.457,766.516,111.109z
		 M738.5,255.121c-0.052-0.726-0.02-1.432-0.014-1.787c-1.452,1.1-9.25,8.882-7.902,3.037c0.875,2.62,1.063,1.898,4.139-1.433
		c1.82-1.971,3.001-2.898,3.777-3.183V255.121L738.5,255.121z M738.5,195.033v0.908c-2.47,2.003-4.164,2.536-3.809-2.705
		C735.204,197.782,735.789,197.626,738.5,195.033L738.5,195.033z M738.5,291.519v4.344c-1.286-5.233-4.759-13.095-5.348-14.338
		C734.024,282.812,736.646,287.144,738.5,291.519L738.5,291.519z M738.5,300.412c-5.273-2.574-8.532-19.542-15.193-8.988
		c-3.979,6.305-7.952,12.926-10.173,3.444c-0.479,15.048,13.226-4.932,13.245-4.944c3.282-2.373,8.341,12.222,12.121,12.086v-1.569
		l-0.007,0.011l0.007-0.011V300.412L738.5,300.412z M617.857,248.752v-1.838l0.005,0.005l-0.005-0.005v-0.332
		c1.068-2.514,7.082-19.025,10.821-7.893c1.237,3.685,0.913,6.163,0.788,9.981c-3.493-26.16-8.005-2.932-10.378-0.64
		C618.64,248.463,618.23,248.694,617.857,248.752L617.857,248.752z M617.857,180.848v-2.371c2.896-6.174,5.298-19.187,10.968-12.89
		c1.969,2.186,2.747,4.94,3.721,7.631c-6.008-12.002-8.247-11.132-12.275,2.202C619.543,177.831,618.725,179.624,617.857,180.848
		L617.857,180.848z M643.325,277.417c1.842,3.552,6.083,15.075,2.666,18.777c-3.957,4.288-6.926-12.504-10.912-9.193
		c-5.483,4.551-15.542,20.321-14.853,5.814c0.459,3.036,0.456,3.46,0.919,4.514c1.38,3.146,10.09-8.713,12.125-10.854
		c6.58-6.923,8.947,9.326,11.533,8.794C647.804,294.652,643.863,279.108,643.325,277.417L643.325,277.417z M655.13,207.608
		c-0.113,2.33-0.826,25.557,5.294,23.807c4.901-1.402,10.118-22.117,18.424,1.14c2.565,7.186,8.703,9.109,11.7,1.232
		c-0.663,7.213-9.099,8.849-12.938-0.821c-8.916-22.459-10.244,1.688-18.23,0.018C651.914,231.421,654.324,212.166,655.13,207.608z
		 M617.857,178.476v2.371c-2.996,4.225-6.57,1.632-8.982-6.004c-1.965-6.225-0.35-25.59-11.221-11.557
		c-0.008,0.012-7.828,14.282-9.264,7.551c-2.103-9.853,2.987-30.21,7.199-39.197c-1.891,5.477-9.072,35.311-5.495,39.378
		l0.056,0.052l0.011,0.005v0l-0.003-0.003l0,0c1.645-0.343,11.827-22.079,17.553-11.947c2.019,3.574,1.353,21.369,7.198,22.342
		C616.012,181.651,616.958,180.392,617.857,178.476L617.857,178.476z M617.857,246.583v0.332l-0.006-0.008l0.006,0.008v1.838
		c-4.473,0.69-3.836-23.465-3.79-24.206c0.306,2.882,1.661,20.3,3.683,22.274C617.777,246.769,617.814,246.687,617.857,246.583
		L617.857,246.583z M539.126,79.798c-0.801,1.303-9.847,16.592-7.769,17.597l0.002-0.003c1.181,0.092,28.575-19.266,20.599-6.814
		l0.506-1.676c1.906-7.577-16.996,11.068-21.383,10.16C524.671,97.734,538.079,80.935,539.126,79.798L539.126,79.798z
		 M495.497,126.508c-0.485,2.568-3.578,16.007-3.042,18.894c5.345-3.898,10.049-22.399,13.307,0.612
		c-1.838-5.629-2.473-7.602-2.473-7.602c-2.648-7.156-4.53,4.216-9.678,8.304C486.674,152.227,495.376,126.826,495.497,126.508
		L495.497,126.508z M502.168,175.784c0.242,2.421,2.376,22.764,5.538,23.619c3.074-3.247-3.359-32.017,9.196-24.162
		c4.624,2.893,4.682,2.564,1.873-3.967l-3.26-6.784l3.99,6.417l2.042,4.695c1.719,5.386-6.335,0.152-6.644,0.015
		c-8.431-3.79-1.337,25.339-7.159,25.309C502.277,200.897,502.127,178.669,502.168,175.784z"/>
</g>
<g>
	<path fill="#FFFFFF" d="M547.11,193.208l-4.964,9.432c-1.46,2.78-0.383,6.25,2.396,7.713l10.94,5.754l10.279-19.54l-10.94-5.755
		C552.042,189.351,548.571,190.428,547.11,193.208z"/>
	<path fill="#FFFFFF" d="M557.229,196.586L557.229,196.586c-1.021,1.941-0.267,4.366,1.674,5.387l15.172,7.982
		c1.94,1.021,4.364,0.267,5.387-1.672l0,0c1.021-1.943,0.268-4.367-1.673-5.388l-15.173-7.982
		C560.675,193.891,558.251,194.643,557.229,196.586z"/>
	<path fill="#FFFFFF" d="M550.665,209.066L550.665,209.066c-1.021,1.942-0.269,4.363,1.673,5.387l15.172,7.98
		c1.942,1.021,4.366,0.269,5.388-1.672l0,0c1.021-1.943,0.269-4.365-1.673-5.388l-15.172-7.982
		C554.11,206.371,551.686,207.124,550.665,209.066z"/>
</g>
<path fill="#FFFFFF" d="M830.085,254.815l-7.207,4.021l-14.369-25.742l7.206-4.022C833.765,218.997,848.021,244.451,830.085,254.815
	z"/>
<path fill="#FFFFFF" d="M811.333,256.551l-6.937-12.428c-2.045-3.661-0.722-8.329,2.94-10.373l5.188-2.896l14.369,25.742
	l-5.188,2.896C818.044,261.535,813.377,260.211,811.333,256.551z"/>
<path fill="#448432" d="M821.08,239.952l-7.483,4.176c-5.046,2.817-9.258-3.968-3.889-6.965l7.483-4.18
	C821.45,230.607,826.176,237.104,821.08,239.952z"/>
<path fill="#448432" d="M827.954,252.262l-7.485,4.179c-5.557,3.103-9.045-4.087-3.889-6.966l7.485-4.179
	C829.135,242.467,832.857,249.525,827.954,252.262z"/>
</svg>
